<svg width="25" height="24" viewBox="0 0 25 24" fill="none" xmlns="http://www.w3.org/2000/svg">
<path d="M3.20008 0.95H3.20006H0.800016C0.575249 0.95 0.359281 1.03555 0.199724 1.18845C0.0400956 1.34143 -0.05 1.54937 -0.05 1.76667C-0.05 1.98396 0.0400956 2.19191 0.199724 2.34488C0.359281 2.49779 0.575249 2.58333 0.800016 2.58333H2.53738L3.16729 5.0085L5.56544 17.2507C5.6021 17.4383 5.70593 17.6073 5.85843 17.7288C6.01088 17.8502 6.20248 17.9165 6.40008 17.9167H6.40013H7.18345C6.62812 18.0549 6.11572 18.333 5.70278 18.7288C5.09305 19.3131 4.7501 20.106 4.7501 20.9333C4.7501 21.7606 5.09305 22.5536 5.70278 23.1379C6.31243 23.7221 7.13886 24.05 8.00016 24.05C8.86146 24.05 9.68789 23.7221 10.2975 23.1379C10.9073 22.5536 11.2502 21.7606 11.2502 20.9333C11.2502 20.106 10.9073 19.3131 10.2975 18.7288C9.8846 18.333 9.3722 18.0549 8.81687 17.9167H18.3837C17.8283 18.0549 17.3159 18.333 16.903 18.7288C16.2933 19.3131 15.9503 20.106 15.9503 20.9333C15.9503 21.7606 16.2933 22.5536 16.903 23.1379C17.5127 23.7221 18.3391 24.05 19.2004 24.05C20.0617 24.05 20.8881 23.7221 21.4978 23.1379C22.1075 22.5536 22.4504 21.7606 22.4504 20.9333C22.4504 20.106 22.1075 19.3131 21.4978 18.7288C21.0848 18.333 20.5724 18.0549 20.0171 17.9167H20.8004C21.0252 17.9167 21.2412 17.8311 21.4007 17.6782C21.5603 17.5252 21.6504 17.3173 21.6504 17.1C21.6504 16.8827 21.5603 16.6748 21.4007 16.5218C21.2412 16.3689 21.0252 16.2833 20.8004 16.2833H7.1053L6.66512 14.036L21.6428 13.3151L21.6429 13.3151C21.8311 13.306 22.0112 13.2369 22.1544 13.1186C22.2977 13.0002 22.396 12.8391 22.4334 12.6605L22.4334 12.6605L24.0334 4.99382C24.0582 4.87507 24.0552 4.75254 24.0246 4.63508C23.994 4.51762 23.9366 4.4083 23.8568 4.31493C23.777 4.22156 23.6767 4.14649 23.5632 4.09497C23.4497 4.04346 23.3259 4.01674 23.2005 4.01667H4.66273L4.02447 1.56854C4.02447 1.56853 4.02446 1.56853 4.02446 1.56852C3.97835 1.39134 3.87185 1.23446 3.72241 1.12255C3.57301 1.01066 3.38915 0.95005 3.20008 0.95ZM6.3481 12.4158L5.02403 5.65H22.1629L20.897 11.7159L6.3481 12.4158ZM6.90336 19.8852C7.1939 19.6068 7.5884 19.45 8.00016 19.45C8.41193 19.45 8.80642 19.6068 9.09696 19.8852C9.38743 20.1636 9.55019 20.5406 9.55019 20.9333C9.55019 21.326 9.38743 21.7031 9.09696 21.9815C8.80642 22.2599 8.41193 22.4167 8.00016 22.4167C7.5884 22.4167 7.1939 22.2599 6.90336 21.9815C6.61289 21.7031 6.45013 21.326 6.45013 20.9333C6.45013 20.5406 6.61289 20.1636 6.90336 19.8852ZM18.1036 19.8852C18.3941 19.6068 18.7886 19.45 19.2004 19.45C19.6122 19.45 20.0066 19.6068 20.2972 19.8852C20.5877 20.1636 20.7504 20.5406 20.7504 20.9333C20.7504 21.326 20.5877 21.7031 20.2972 21.9815C20.0066 22.2599 19.6122 22.4167 19.2004 22.4167C18.7886 22.4167 18.3941 22.2599 18.1036 21.9815C17.8131 21.7031 17.6504 21.326 17.6504 20.9333C17.6504 20.5406 17.8131 20.1636 18.1036 19.8852Z" fill="#151515" stroke="#151515" stroke-width="0.1"/>
</svg>
