<svg width="20" height="20" viewBox="0 0 20 20" fill="none" xmlns="http://www.w3.org/2000/svg">
<path d="M18.4996 13.1C18.2622 12.9821 17.9877 12.9633 17.7363 13.0477C17.485 13.132 17.2775 13.3127 17.1593 13.55C16.5262 14.8282 15.5629 15.9139 14.369 16.6948C13.1751 17.4756 11.7941 17.9231 10.369 17.9909C8.94396 18.0588 7.52668 17.7445 6.26397 17.0806C5.00127 16.4167 3.93906 15.4274 3.18737 14.2151C2.43567 13.0028 2.02184 11.6116 1.98873 10.1857C1.95561 8.75974 2.30442 7.35087 2.99903 6.10501C3.69363 4.85915 4.70877 3.82161 5.9393 3.09985C7.16983 2.37809 8.57099 1.99837 9.99765 2.00001C11.4891 1.99355 12.9522 2.40764 14.219 3.19476C15.4857 3.98187 16.5048 5.11012 17.1593 6.45C17.2787 6.6887 17.488 6.87021 17.7413 6.9546C17.9945 7.03899 18.2709 7.01935 18.5097 6.9C18.7484 6.78065 18.93 6.57137 19.0144 6.3182C19.0988 6.06503 19.0791 5.7887 18.9598 5.55C17.9561 3.53075 16.2994 1.90987 14.2584 0.950437C12.2174 -0.00899238 9.91197 -0.250651 7.71632 0.264685C5.52067 0.78002 3.56366 2.0221 2.16294 3.78933C0.762218 5.55655 0 7.74519 0 10C0 12.2548 0.762218 14.4434 2.16294 16.2107C3.56366 17.9779 5.52067 19.22 7.71632 19.7353C9.91197 20.2507 12.2174 20.009 14.2584 19.0496C16.2994 18.0901 17.9561 16.4693 18.9598 14.45C19.0194 14.3314 19.0547 14.2021 19.0638 14.0696C19.0729 13.9372 19.0556 13.8042 19.0127 13.6786C18.9699 13.5529 18.9025 13.437 18.8144 13.3377C18.7263 13.2384 18.6193 13.1576 18.4996 13.1ZM18.9998 9H9.40751L11.7081 6.71C11.8013 6.61676 11.8753 6.50607 11.9258 6.38425C11.9762 6.26243 12.0022 6.13186 12.0022 6C12.0022 5.86814 11.9762 5.73758 11.9258 5.61575C11.8753 5.49393 11.8013 5.38324 11.7081 5.29C11.6148 5.19677 11.5041 5.12281 11.3822 5.07234C11.2604 5.02188 11.1298 4.99591 10.9979 4.99591C10.866 4.99591 10.7354 5.02188 10.6135 5.07234C10.4917 5.12281 10.381 5.19677 10.2877 5.29L6.28678 9.29C6.19572 9.3851 6.12434 9.49725 6.07673 9.62C5.97669 9.86346 5.97669 10.1365 6.07673 10.38C6.12434 10.5028 6.19572 10.6149 6.28678 10.71L10.2877 14.71C10.3807 14.8037 10.4913 14.8781 10.6132 14.9289C10.7351 14.9797 10.8658 15.0058 10.9979 15.0058C11.1299 15.0058 11.2607 14.9797 11.3826 14.9289C11.5044 14.8781 11.6151 14.8037 11.7081 14.71C11.8018 14.617 11.8762 14.5064 11.927 14.3846C11.9778 14.2627 12.0039 14.132 12.0039 14C12.0039 13.868 11.9778 13.7373 11.927 13.6154C11.8762 13.4936 11.8018 13.383 11.7081 13.29L9.40751 11H18.9998C19.265 11 19.5195 10.8946 19.707 10.7071C19.8946 10.5196 20 10.2652 20 10C20 9.73478 19.8946 9.48043 19.707 9.29289C19.5195 9.10536 19.265 9 18.9998 9Z" fill="#151515"/>
</svg>
