<svg width="18" height="18" viewBox="0 0 18 18" fill="none" xmlns="http://www.w3.org/2000/svg">
<path fill-rule="evenodd" clip-rule="evenodd" d="M5.28998 0.054C6.24079 0.00981817 6.54395 0 8.96597 0C11.388 0 11.6911 0.0106364 12.6412 0.054C13.5912 0.0973636 14.2396 0.250364 14.807 0.472091C15.4012 0.698727 15.9402 1.053 16.386 1.51118C16.84 1.96036 17.1901 2.50364 17.4139 3.10418C17.6343 3.67691 17.7851 4.33145 17.8289 5.28873C17.8727 6.25009 17.8824 6.55609 17.8824 9C17.8824 11.4447 17.8718 11.7507 17.8289 12.7105C17.7859 13.6677 17.6343 14.3223 17.4139 14.895C17.1901 15.4956 16.8394 16.0398 16.386 16.4896C15.9402 16.9478 15.4012 17.3013 14.807 17.5271C14.2396 17.7496 13.5912 17.9018 12.6428 17.946C11.6911 17.9902 11.388 18 8.96597 18C6.54395 18 6.24079 17.9894 5.28998 17.946C4.3416 17.9026 3.69313 17.7496 3.12572 17.5271C2.53069 17.3012 1.99157 16.9472 1.5459 16.4896C1.09228 16.0402 0.741243 15.4963 0.517267 14.8958C0.297599 14.3231 0.14683 13.6685 0.103059 12.7113C0.0592875 11.7499 0.0495605 11.4439 0.0495605 9C0.0495605 6.55527 0.0600981 6.24927 0.103059 5.29036C0.14602 4.33145 0.297599 3.67691 0.517267 3.10418C0.741573 2.5037 1.09288 1.9598 1.54671 1.51036C1.99175 1.05259 2.53033 0.698272 3.12491 0.472091C3.69232 0.250364 4.34078 0.0981818 5.28917 0.054H5.28998ZM12.569 1.674C11.6287 1.63064 11.3466 1.62164 8.96597 1.62164C6.58529 1.62164 6.3032 1.63064 5.36293 1.674C4.49317 1.71409 4.02142 1.86055 3.70691 1.98409C3.29108 2.14773 2.9936 2.34164 2.68152 2.65664C2.3857 2.94713 2.15803 3.30078 2.01522 3.69164C1.89283 4.00909 1.74773 4.48527 1.70801 5.36318C1.66505 6.31227 1.65614 6.597 1.65614 9C1.65614 11.403 1.66505 11.6877 1.70801 12.6368C1.74773 13.5147 1.89283 13.9909 2.01522 14.3084C2.15789 14.6986 2.38566 15.0529 2.68152 15.3434C2.96928 15.642 3.32026 15.8719 3.70691 16.0159C4.02142 16.1395 4.49317 16.2859 5.36293 16.326C6.3032 16.3694 6.58448 16.3784 8.96597 16.3784C11.3475 16.3784 11.6287 16.3694 12.569 16.326C13.4388 16.2859 13.9105 16.1395 14.225 16.0159C14.6409 15.8523 14.9383 15.6584 15.2504 15.3434C15.5463 15.0529 15.7741 14.6986 15.9167 14.3084C16.0391 13.9909 16.1842 13.5147 16.2239 12.6368C16.2669 11.6877 16.2758 11.403 16.2758 9C16.2758 6.597 16.2669 6.31227 16.2239 5.36318C16.1842 4.48527 16.0391 4.00909 15.9167 3.69164C15.7546 3.27191 15.5625 2.97164 15.2504 2.65664C14.9626 2.35806 14.6122 2.12826 14.225 1.98409C13.9105 1.86055 13.4388 1.71409 12.569 1.674V1.674ZM7.8271 11.7745C8.46313 12.0417 9.17135 12.0778 9.8308 11.8765C10.4903 11.6752 11.06 11.2491 11.4428 10.6709C11.8256 10.0927 11.9976 9.39835 11.9295 8.70636C11.8614 8.01437 11.5574 7.3677 11.0694 6.87682C10.7584 6.56303 10.3822 6.32276 9.96812 6.1733C9.55401 6.02385 9.11222 5.96893 8.67456 6.0125C8.2369 6.05608 7.81425 6.19705 7.43705 6.42529C7.05985 6.65352 6.73747 6.96334 6.49313 7.33242C6.24878 7.70151 6.08855 8.12069 6.02397 8.55979C5.95939 8.99888 5.99206 9.44697 6.11964 9.87179C6.24722 10.2966 6.46652 10.6876 6.76177 11.0166C7.05701 11.3456 7.42086 11.6044 7.8271 11.7745ZM5.72526 5.72891C6.15084 5.29934 6.65607 4.95859 7.21211 4.72611C7.76815 4.49363 8.36411 4.37398 8.96597 4.37398C9.56782 4.37398 10.1638 4.49363 10.7198 4.72611C11.2759 4.95859 11.7811 5.29934 12.2067 5.72891C12.6323 6.15847 12.9698 6.66844 13.2002 7.2297C13.4305 7.79095 13.549 8.3925 13.549 9C13.549 9.6075 13.4305 10.209 13.2002 10.7703C12.9698 11.3316 12.6323 11.8415 12.2067 12.2711C11.3472 13.1386 10.1815 13.626 8.96597 13.626C7.75047 13.626 6.58475 13.1386 5.72526 12.2711C4.86577 11.4035 4.38291 10.2269 4.38291 9C4.38291 7.7731 4.86577 6.59646 5.72526 5.72891V5.72891ZM14.5655 5.06291C14.6709 4.96249 14.7554 4.84174 14.8138 4.7078C14.8722 4.57385 14.9033 4.42945 14.9054 4.28312C14.9076 4.1368 14.8806 3.99154 14.8261 3.85594C14.7716 3.72033 14.6907 3.59715 14.5881 3.49367C14.4856 3.39019 14.3636 3.30853 14.2292 3.25351C14.0949 3.1985 13.951 3.17125 13.806 3.17339C13.6611 3.17552 13.518 3.20699 13.3853 3.26593C13.2526 3.32488 13.133 3.4101 13.0335 3.51655C12.84 3.72357 12.7341 3.99855 12.7382 4.28312C12.7423 4.5677 12.8561 4.83945 13.0555 5.04069C13.2549 5.24193 13.5241 5.35682 13.806 5.36097C14.0879 5.36512 14.3604 5.2582 14.5655 5.06291V5.06291Z" fill="#181612"/>
</svg>
