<svg width="18" height="13" viewBox="0 0 18 13" fill="none" xmlns="http://www.w3.org/2000/svg">
<path d="M17.6061 2.03073C17.5046 1.6375 17.3056 1.27889 17.029 0.990807C16.7523 0.702719 16.4078 0.495253 16.0299 0.389172C14.6387 7.89667e-08 9.06192 0 9.06192 0C9.06192 0 3.48518 -7.89667e-08 2.09398 0.387102C1.71587 0.492839 1.37116 0.70019 1.09448 0.988331C0.817795 1.27647 0.618872 1.63526 0.517688 2.02866C0.145508 3.47771 0.145508 6.5 0.145508 6.5C0.145508 6.5 0.145508 9.52229 0.517688 10.9693C0.722686 11.7683 1.32773 12.3976 2.09398 12.6108C3.48518 13 9.06192 13 9.06192 13C9.06192 13 14.6387 13 16.0299 12.6108C16.7981 12.3976 17.4011 11.7683 17.6061 10.9693C17.9783 9.52229 17.9783 6.5 17.9783 6.5C17.9783 6.5 17.9783 3.47771 17.6061 2.03073ZM7.29058 9.27389V3.72611L11.908 6.4793L7.29058 9.27389Z" fill="#181612"/>
</svg>
